<svg xmlns="http://www.w3.org/2000/svg" viewBox="0 0 533.5 544.3" role="img" aria-hidden="true">
  <path fill="#4285F4" d="M533.5 278.4c0-18.4-1.5-36.2-4.7-53.4H272v101.1h146.9c-6.3 34-25.3 62.7-53.9 82v68h87.1c51-47 80.4-116.2 80.4-197.7z"/>
  <path fill="#34A853" d="M272 544.3c72.6 0 133.5-24.1 178-65.3l-87.1-68c-24.2 16.3-55.1 25.9-90.9 25.9-69.9 0-129.2-47.2-150.4-110.7H31.8v69.6C76.1 484.7 167.2 544.3 272 544.3z"/>
  <path fill="#FBBC04" d="M121.6 326.2c-10.1-30.1-10.1-62.5 0-92.6V164H31.8c-36.8 73.3-36.8 159 0 232.3l89.8-70.1z"/>
  <path fill="#EA4335" d="M272 107.7c37.4-.6 73.5 13.7 101.2 40l75.4-75.4C403.1 24.6 342.2-.1 272 0 167.2 0 76.1 59.6 31.8 164l89.8 69.6C142.8 154.9 202.1 107.7 272 107.7z"/>
</svg>
